<svg width="157" height="32" viewBox="0 0 157 32" fill="none" xmlns="http://www.w3.org/2000/svg">
<path d="M57.5601 26.5064C57.0807 26.7248 56.6885 26.7248 53.9865 26.7248C50.5437 26.7248 50.2823 26.5064 50.2823 23.6668C50.2823 21.7446 50.3694 21.2641 50.8052 20.8709C51.241 20.4777 51.764 20.3904 54.7274 20.3904C57.8215 20.3904 58.083 20.4777 58.1702 21.7883H61.613V21.3951C61.613 19.6477 61.1772 18.5992 60.2184 18.1187C59.2161 17.6382 58.2573 17.5508 53.8558 17.5508C50.5437 17.5508 49.4107 17.7255 48.3648 18.3371C47.1445 19.0361 46.7959 20.1719 46.7959 23.2736C46.7959 26.7685 47.1445 28.0354 48.2776 28.7781C49.2364 29.3897 50.3258 29.5644 53.725 29.5644C56.0783 29.5644 57.4729 29.5644 58.2137 29.4771C60.0441 29.346 61.0028 28.8655 61.4822 27.8607C61.7437 27.3364 61.7873 26.7248 61.7873 25.0211H58.3009C58.2573 25.9385 58.083 26.288 57.5601 26.5064Z" fill="#E65925"/>
<path d="M76.2992 17.7695C75.4712 17.6384 74.4253 17.5947 71.0261 17.5947C67.9319 17.5947 66.8424 17.6821 65.8401 17.9442C64.5327 18.3374 63.8355 18.9927 63.4868 20.2596C63.2689 21.0459 63.2253 21.5702 63.2253 23.536C63.2253 26.1135 63.3125 26.9872 63.7919 27.8609C64.2277 28.7347 65.0121 29.2152 66.3195 29.4773C67.0168 29.6084 68.4549 29.6521 71.2876 29.6521C72.4206 29.6521 73.9895 29.6521 74.6432 29.6084C76.3428 29.521 77.3451 29.2589 78.0424 28.6473C79.0447 27.8173 79.3498 26.6814 79.3498 23.7981C79.3498 22.3565 79.3062 21.3954 79.2626 20.9149C79.0012 19.0364 78.086 18.0753 76.2992 17.7695ZM75.3405 26.0698C74.9483 26.6377 74.2946 26.7251 71.2004 26.7251C68.4985 26.7251 67.9319 26.6377 67.4526 26.2446C67.0168 25.8514 66.886 25.2398 66.886 23.4923C66.886 21.7886 67.0168 21.2207 67.4961 20.8275C67.9755 20.478 68.6728 20.3906 71.3311 20.3906C75.7327 20.3906 75.8198 20.4343 75.8198 23.405C75.7763 25.065 75.6891 25.633 75.3405 26.0698Z" fill="#E65925"/>
<path d="M107.066 26.681L99.9194 17.6816H93.8618L93.949 26.681L86.8019 17.6816H81.093V29.5205H84.5358L84.4486 20.6086L91.5085 29.5205H97.261V20.2591L104.582 29.5205H110.379V17.6816H106.979L107.066 26.681Z" fill="#E65925"/>
<path d="M115.87 24.7588H124.847V22.3997H115.87V20.3902H125.413V17.6816H112.34V29.5205H125.544V26.8557H115.87V24.7588Z" fill="#E65925"/>
<path d="M137.659 26.5064C137.18 26.7248 136.788 26.7248 134.086 26.7248C130.643 26.7248 130.382 26.5064 130.382 23.6668C130.382 21.7446 130.469 21.2641 130.905 20.8709C131.34 20.4777 131.863 20.3904 134.827 20.3904C137.921 20.3904 138.182 20.4777 138.27 21.7883H141.712V21.3951C141.712 19.6477 141.277 18.5992 140.318 18.1187C139.315 17.6382 138.357 17.5508 133.955 17.5508C130.643 17.5508 129.51 17.7255 128.464 18.3371C127.244 19.0361 126.895 20.1719 126.895 23.2736C126.895 26.7685 127.244 28.0354 128.377 28.7781C129.336 29.3897 130.425 29.5644 133.824 29.5644C136.178 29.5644 137.572 29.5644 138.313 29.4771C140.143 29.346 141.102 28.8655 141.582 27.8607C141.843 27.3364 141.887 26.7248 141.887 25.0211H138.4C138.357 25.9385 138.182 26.288 137.659 26.5064Z" fill="#E65925"/>
<path d="M148.118 29.5203H151.692V20.6084L148.118 22.4869V29.5203Z" fill="#E65925"/>
<path d="M156.921 17.6816H142.845V20.6086H156.921V17.6816Z" fill="#E65925"/>
<path d="M59.7826 2.56635C61.613 2.91583 62.4845 3.83324 62.746 5.75542C62.8332 6.23597 62.8332 7.19706 62.8332 8.6387C62.8332 11.4783 62.5281 12.6578 61.5258 13.4878C60.8285 14.0995 59.8262 14.3616 58.1266 14.4489C57.4729 14.4926 55.904 14.4926 54.771 14.4926C51.9819 14.4926 50.5437 14.4489 49.8029 14.3179C48.4955 14.0995 47.7546 13.5752 47.2753 12.7015C46.7959 11.8278 46.7087 10.9541 46.7087 8.37658C46.7087 6.41071 46.7523 5.88648 46.9702 5.10013C47.3189 3.83324 48.0161 3.17795 49.3235 2.78478C50.3258 2.52266 51.3718 2.43529 54.5095 2.43529C57.9087 2.34792 58.9546 2.3916 59.7826 2.56635ZM50.9795 5.66805C50.5002 6.06123 50.3694 6.62914 50.3694 8.3329C50.3694 10.0803 50.5002 10.6919 50.936 11.0851C51.4153 11.4783 51.9819 11.5657 54.6838 11.5657C57.778 11.5657 58.4316 11.4783 58.8239 10.9104C59.1725 10.4735 59.2597 9.86191 59.2597 8.28921C59.2597 5.31856 59.2161 5.27488 54.771 5.27488C52.1562 5.27488 51.4589 5.36225 50.9795 5.66805Z" fill="#081525"/>
<path d="M64.6199 2.47852H70.3288L77.4758 11.4778L77.3887 2.47852H80.7879V14.2737H75.0354L67.9755 5.40548L68.0627 14.3174H64.6199V2.47852Z" fill="#081525"/>
<path d="M95.823 2.47852V5.14336H86.2791V7.1966H95.2565V9.55565H86.2791V11.6526H95.9102V14.3174H82.7056V2.5222H95.823V2.47852Z" fill="#081525"/>
<path d="M102.839 5.40548H97.6096V2.47852H111.686V5.40548H106.456V14.3174H102.883V5.40548H102.839Z" fill="#081525"/>
<path d="M115.957 2.47852H120.75L127.2 14.2737H123.278L122.101 12.1768H114.519L113.385 14.2737H109.333L115.957 2.47852ZM120.881 9.73039L118.353 5.0123L115.826 9.73039H120.881Z" fill="#081525"/>
<path d="M127.81 2.47852H136.831C139.097 2.47852 139.708 2.56589 140.448 2.91538C141.625 3.48329 142.061 4.57544 142.061 6.80343C142.061 9.0751 141.669 10.2109 140.666 10.8225C139.969 11.2594 139.185 11.3905 137.136 11.3905H131.384V14.3174H127.81V2.47852ZM136.57 8.55087C138.051 8.55087 138.444 8.24507 138.444 7.10923C138.444 5.71128 138.095 5.36179 136.57 5.36179H131.34V8.55087H136.57Z" fill="#081525"/>
<path d="M18.2512 11.6528L16.0722 9.46849C16.0722 9.46849 16.0286 9.4248 15.985 9.4248C15.9414 9.4248 15.9414 9.4248 15.8979 9.46849C14.2418 11.1722 13.2395 13.4439 13.2395 15.9777C13.2395 18.5115 14.2418 20.8269 15.8979 22.4869C15.8979 22.4869 15.9414 22.5306 15.985 22.5306C16.0286 22.5306 16.0286 22.5306 16.0722 22.4869L18.2512 20.3026C18.2947 20.2589 18.2947 20.1716 18.2512 20.1279C17.2052 19.0357 16.5515 17.5504 16.5515 15.934C16.5515 14.3176 17.2052 12.8323 18.2512 11.7402C18.3383 11.7838 18.2947 11.6965 18.2512 11.6528Z" fill="#E65925"/>
<path d="M34.1578 7.06574C34.2014 7.06574 34.2886 7.10943 34.2886 7.1968V24.8459C34.2886 24.8896 34.245 24.977 34.1578 24.977H16.2902L11.6272 29.6514H35.2909C37.9057 29.6514 40.0847 27.5108 40.0847 24.8459V7.15312C40.0847 4.53196 37.9493 2.34766 35.2909 2.34766H11.6272L16.2902 7.02206H34.1578V7.06574ZM37.4699 9.42479V22.5743C37.4699 22.749 37.3392 22.9238 37.1213 22.9238C36.9034 22.9238 36.7726 22.7927 36.7726 22.5743V9.42479C36.7726 9.25005 36.9034 9.0753 37.1213 9.0753C37.3392 9.0753 37.4699 9.25005 37.4699 9.42479Z" fill="#081525"/>
<path d="M13.5881 6.97896L11.4091 4.79466C11.4091 4.79466 11.3655 4.75098 11.322 4.75098C11.2784 4.75098 11.2784 4.75098 11.2348 4.79466C8.40212 7.67794 6.65894 11.6534 6.65894 16.022C6.65894 20.3906 8.40212 24.366 11.2348 27.2493C11.2348 27.2493 11.2784 27.293 11.322 27.293C11.3655 27.293 11.3655 27.293 11.4091 27.2493L13.5881 25.065C13.6317 25.0213 13.6317 24.9339 13.5881 24.8902C11.3655 22.6186 9.97098 19.4732 9.97098 16.022C9.97098 12.5708 11.3655 9.42538 13.5881 7.15371C13.6317 7.11002 13.6317 7.02265 13.5881 6.97896Z" fill="#E65925"/>
<path d="M6.57185 0.119859C2.51895 4.22634 0.0349121 9.81815 0.0349121 16.0216C0.0349121 22.225 2.51895 27.8168 6.57185 31.9233C6.57185 31.9233 6.61543 31.967 6.65901 31.967C6.70259 31.967 6.70259 31.967 6.74617 31.9233L8.92515 29.739C8.96873 29.6953 8.96873 29.6079 8.92515 29.5642C5.48236 26.0693 3.34696 21.3076 3.34696 16.0216C3.34696 10.7356 5.48236 5.97378 8.92515 2.4789C8.96873 2.43522 8.96873 2.34785 8.92515 2.30416L6.74617 0.119859C6.74617 0.119859 6.70259 0.0761719 6.65901 0.0761719C6.61543 0.0761719 6.61543 0.0761729 6.57185 0.119859Z" fill="#E65925"/>
<path d="M22.9414 18.7076C24.4224 18.5248 25.4752 17.173 25.2929 15.6884C25.1105 14.2037 23.7621 13.1483 22.281 13.3311C20.8 13.5139 19.7472 14.8657 19.9295 16.3503C20.1119 17.835 21.4603 18.8904 22.9414 18.7076Z" fill="#E65925"/>
</svg>
