<svg width="65" height="72" viewBox="0 0 65 72" fill="none" xmlns="http://www.w3.org/2000/svg">
<rect width="64.0833" height="71.1667" transform="translate(0.916992)" fill="black"/>
<path d="M20.917 41.25V44.0833C21.8472 44.0833 22.7683 44.2665 23.6277 44.6225C24.4871 44.9785 25.2679 45.5002 25.9257 46.158C26.5834 46.8157 27.1052 47.5966 27.4611 48.456C27.8171 49.3154 28.0003 50.2365 28.0003 51.1667H30.8337C30.8337 48.5366 29.7889 46.0143 27.9291 44.1545C26.0694 42.2948 23.5471 41.25 20.917 41.25ZM20.917 46.9167V51.1667H25.167C25.167 50.0395 24.7192 48.9585 23.9222 48.1615C23.1252 47.3644 22.0442 46.9167 20.917 46.9167ZM20.917 35.5833V38.4167C24.2985 38.4167 27.5415 39.76 29.9326 42.1511C32.3237 44.5421 33.667 47.7852 33.667 51.1667H36.5003C36.5003 42.5533 29.5303 35.5833 20.917 35.5833ZM42.167 20H28.0003C27.2489 20 26.5282 20.2985 25.9969 20.8299C25.4655 21.3612 25.167 22.0819 25.167 22.8333V33.2742C26.1445 33.5008 27.0937 33.7983 28.0003 34.1667V25.6667H42.167V44.0833H37.8745C38.6253 45.8542 39.0645 47.7525 39.2203 49.75H42.167C42.9184 49.75 43.6391 49.4515 44.1705 48.9201C44.7018 48.3888 45.0003 47.6681 45.0003 46.9167V22.8333C45.0003 22.0819 44.7018 21.3612 44.1705 20.8299C43.6391 20.2985 42.9184 20 42.167 20Z" fill="white"/>
</svg>
