<svg width="277" height="76" viewBox="0 0 277 76" fill="none" xmlns="http://www.w3.org/2000/svg">
<rect x="0.5" width="276" height="76" rx="8" fill="#2C2C2C"/>
<path d="M41.1812 40.4997C39.57 40.4997 38.195 39.9302 37.0562 38.7913C35.9173 37.6525 35.3478 36.2775 35.3478 34.6663C35.3478 33.0552 35.9173 31.6802 37.0562 30.5413C38.195 29.4025 39.57 28.833 41.1812 28.833C42.7923 28.833 44.1673 29.4025 45.3062 30.5413C46.445 31.6802 47.0145 33.0552 47.0145 34.6663C47.0145 36.2775 46.445 37.6525 45.3062 38.7913C44.1673 39.9302 42.7923 40.4997 41.1812 40.4997ZM41.1812 37.1663C41.8756 37.1663 42.4662 36.923 42.9528 36.4363C43.4395 35.9497 43.6823 35.3597 43.6812 34.6663C43.6812 33.9719 43.4378 33.3813 42.9512 32.8947C42.4645 32.408 41.8745 32.1652 41.1812 32.1663C40.4867 32.1663 39.8962 32.4097 39.4095 32.8963C38.9228 33.383 38.68 33.973 38.6812 34.6663C38.6812 35.3608 38.9245 35.9513 39.4112 36.438C39.8978 36.9247 40.4878 37.1675 41.1812 37.1663ZM52.8478 42.1663C51.6812 42.1663 50.6951 41.7636 49.8895 40.958C49.0839 40.1525 48.6812 39.1663 48.6812 37.9997C48.6812 36.833 49.0839 35.8469 49.8895 35.0413C50.6951 34.2358 51.6812 33.833 52.8478 33.833C54.0145 33.833 55.0006 34.2358 55.8062 35.0413C56.6117 35.8469 57.0145 36.833 57.0145 37.9997C57.0145 39.1663 56.6117 40.1525 55.8062 40.958C55.0006 41.7636 54.0145 42.1663 52.8478 42.1663ZM42.5145 50.9997C43.7645 48.4719 45.4312 46.7841 47.5145 45.9363C49.5978 45.0886 51.3756 44.6652 52.8478 44.6664C53.4867 44.6664 54.1117 44.7219 54.7228 44.833C55.3339 44.9441 55.9312 45.083 56.5145 45.2497C57.1812 44.1941 57.7089 43.0552 58.0978 41.833C58.4867 40.6108 58.6812 39.333 58.6812 37.9997C58.6812 34.2775 57.3895 31.1247 54.8062 28.5413C52.2228 25.958 49.07 24.6663 45.3478 24.6663C41.6256 24.6663 38.4728 25.958 35.8895 28.5413C33.3062 31.1247 32.0145 34.2775 32.0145 37.9997C32.0145 39.2497 32.1739 40.4441 32.4928 41.583C32.8117 42.7219 33.2912 43.7775 33.9312 44.7497C35.0145 44.1941 36.16 43.7636 37.3678 43.458C38.5756 43.1525 39.8467 42.9997 41.1812 42.9997C42.07 42.9997 42.9239 43.0763 43.7428 43.2297C44.5617 43.383 45.3745 43.5841 46.1812 43.833C45.5423 44.1664 44.9378 44.5552 44.3678 44.9997C43.7978 45.4441 43.2634 45.9163 42.7645 46.4163C42.4312 46.3608 42.1467 46.333 41.9112 46.333H41.1812C40.2645 46.333 39.3756 46.4302 38.5145 46.6247C37.6534 46.8191 36.82 47.1108 36.0145 47.4997C36.9034 48.3886 37.8967 49.1319 38.9945 49.7297C40.0923 50.3275 41.2656 50.7508 42.5145 50.9997ZM45.3478 54.6664C43.0423 54.6664 40.8756 54.2286 38.8478 53.353C36.82 52.4775 35.0562 51.2902 33.5562 49.7914C32.0562 48.2914 30.8689 46.5275 29.9945 44.4997C29.12 42.4719 28.6823 40.3052 28.6812 37.9997C28.6812 35.6941 29.1189 33.5275 29.9945 31.4997C30.87 29.4719 32.0573 27.708 33.5562 26.208C35.0562 24.708 36.82 23.5208 38.8478 22.6463C40.8756 21.7719 43.0423 21.3341 45.3478 21.333C47.6534 21.333 49.82 21.7708 51.8478 22.6463C53.8756 23.5219 55.6395 24.7091 57.1395 26.208C58.6395 27.708 59.8273 29.4719 60.7028 31.4997C61.5784 33.5275 62.0156 35.6941 62.0145 37.9997C62.0145 40.3052 61.5767 42.4719 60.7012 44.4997C59.8256 46.5275 58.6384 48.2914 57.1395 49.7914C55.6395 51.2914 53.8756 52.4791 51.8478 53.3547C49.82 54.2302 47.6534 54.6675 45.3478 54.6664Z" fill="white"/>
<path d="M97.8489 45V32.612H102.01C102.859 32.612 103.625 32.707 104.309 32.897C104.993 33.0743 105.531 33.391 105.924 33.847C106.329 34.2903 106.532 34.8983 106.532 35.671C106.532 36.241 106.38 36.7857 106.076 37.305C105.785 37.8117 105.379 38.16 104.86 38.35V38.426C105.519 38.578 106.063 38.8947 106.494 39.376C106.937 39.8573 107.159 40.516 107.159 41.352C107.159 42.188 106.944 42.8783 106.513 43.423C106.082 43.955 105.506 44.354 104.784 44.62C104.062 44.8733 103.251 45 102.352 45H97.8489ZM100.452 42.986H102.124C102.935 42.986 103.549 42.8403 103.967 42.549C104.385 42.245 104.594 41.789 104.594 41.181C104.594 40.611 104.385 40.1993 103.967 39.946C103.549 39.68 102.935 39.547 102.124 39.547H100.452V42.986ZM100.452 37.609H101.858C102.593 37.609 103.125 37.4697 103.454 37.191C103.796 36.9123 103.967 36.5323 103.967 36.051C103.967 35.5317 103.79 35.1643 103.435 34.949C103.093 34.7337 102.574 34.626 101.877 34.626H100.452V37.609ZM113.059 45.228C112.261 45.228 111.514 45.038 110.817 44.658C110.133 44.2653 109.576 43.7017 109.145 42.967C108.714 42.2323 108.499 41.3457 108.499 40.307C108.499 39.2683 108.714 38.3817 109.145 37.647C109.576 36.9123 110.133 36.3487 110.817 35.956C111.514 35.5633 112.261 35.367 113.059 35.367C113.844 35.367 114.579 35.5633 115.263 35.956C115.96 36.3487 116.523 36.9123 116.954 37.647C117.385 38.3817 117.6 39.2683 117.6 40.307C117.6 41.3457 117.385 42.2323 116.954 42.967C116.523 43.7017 115.96 44.2653 115.263 44.658C114.579 45.038 113.844 45.228 113.059 45.228ZM113.059 43.119C113.464 43.119 113.806 43.005 114.085 42.777C114.364 42.549 114.573 42.226 114.712 41.808C114.851 41.3773 114.921 40.877 114.921 40.307C114.921 39.737 114.851 39.243 114.712 38.825C114.573 38.3943 114.364 38.065 114.085 37.837C113.806 37.5963 113.464 37.476 113.059 37.476C112.641 37.476 112.293 37.5963 112.014 37.837C111.735 38.065 111.526 38.3943 111.387 38.825C111.248 39.243 111.178 39.737 111.178 40.307C111.178 40.877 111.248 41.3773 111.387 41.808C111.526 42.226 111.735 42.549 112.014 42.777C112.293 43.005 112.641 43.119 113.059 43.119ZM123.561 45.228C122.763 45.228 122.016 45.038 121.319 44.658C120.635 44.2653 120.078 43.7017 119.647 42.967C119.216 42.2323 119.001 41.3457 119.001 40.307C119.001 39.2683 119.216 38.3817 119.647 37.647C120.078 36.9123 120.635 36.3487 121.319 35.956C122.016 35.5633 122.763 35.367 123.561 35.367C124.346 35.367 125.081 35.5633 125.765 35.956C126.462 36.3487 127.025 36.9123 127.456 37.647C127.887 38.3817 128.102 39.2683 128.102 40.307C128.102 41.3457 127.887 42.2323 127.456 42.967C127.025 43.7017 126.462 44.2653 125.765 44.658C125.081 45.038 124.346 45.228 123.561 45.228ZM123.561 43.119C123.966 43.119 124.308 43.005 124.587 42.777C124.866 42.549 125.075 42.226 125.214 41.808C125.353 41.3773 125.423 40.877 125.423 40.307C125.423 39.737 125.353 39.243 125.214 38.825C125.075 38.3943 124.866 38.065 124.587 37.837C124.308 37.5963 123.966 37.476 123.561 37.476C123.143 37.476 122.795 37.5963 122.516 37.837C122.237 38.065 122.028 38.3943 121.889 38.825C121.75 39.243 121.68 39.737 121.68 40.307C121.68 40.877 121.75 41.3773 121.889 41.808C122.028 42.226 122.237 42.549 122.516 42.777C122.795 43.005 123.143 43.119 123.561 43.119ZM130.073 45V31.662H132.619V39.528H132.695L135.83 35.595H138.661L135.393 39.452L138.927 45H136.115L133.911 41.2L132.619 42.663V45H130.073ZM146.456 45.228C145.899 45.228 145.411 45.1077 144.993 44.867C144.575 44.6137 144.246 44.278 144.005 43.86C143.777 43.4293 143.663 42.948 143.663 42.416C143.663 41.428 144.087 40.6553 144.936 40.098C145.785 39.5407 147.153 39.1607 149.04 38.958C149.027 38.6667 148.964 38.407 148.85 38.179C148.749 37.951 148.584 37.7737 148.356 37.647C148.141 37.5203 147.849 37.457 147.482 37.457C147.064 37.457 146.646 37.5393 146.228 37.704C145.823 37.856 145.398 38.065 144.955 38.331L144.005 36.602C144.385 36.374 144.79 36.165 145.221 35.975C145.652 35.785 146.095 35.6393 146.551 35.538C147.007 35.424 147.482 35.367 147.976 35.367C148.774 35.367 149.445 35.5253 149.99 35.842C150.535 36.1587 150.946 36.6273 151.225 37.248C151.504 37.856 151.643 38.6287 151.643 39.566V45H149.515L149.325 44.012H149.249C148.856 44.3667 148.426 44.658 147.957 44.886C147.501 45.114 147.001 45.228 146.456 45.228ZM147.33 43.214C147.672 43.214 147.97 43.138 148.223 42.986C148.489 42.8213 148.761 42.606 149.04 42.34V40.554C148.318 40.6427 147.748 40.7693 147.33 40.934C146.912 41.086 146.614 41.276 146.437 41.504C146.26 41.7193 146.171 41.9537 146.171 42.207C146.171 42.549 146.279 42.8023 146.494 42.967C146.709 43.1317 146.988 43.214 147.33 43.214ZM161.231 45.228C160.065 45.228 159.128 44.791 158.419 43.917C157.722 43.043 157.374 41.8397 157.374 40.307C157.374 39.281 157.557 38.4007 157.925 37.666C158.305 36.9313 158.792 36.3677 159.388 35.975C159.996 35.5697 160.635 35.367 161.307 35.367C161.839 35.367 162.282 35.4557 162.637 35.633C162.991 35.8103 163.333 36.0573 163.663 36.374L163.568 34.911V31.662H166.171V45H164.043L163.853 44.05H163.777C163.447 44.3793 163.055 44.658 162.599 44.886C162.155 45.114 161.699 45.228 161.231 45.228ZM161.896 43.1C162.225 43.1 162.523 43.0303 162.789 42.891C163.055 42.7517 163.314 42.5173 163.568 42.188V38.16C163.302 37.9193 163.023 37.7547 162.732 37.666C162.453 37.5647 162.174 37.514 161.896 37.514C161.566 37.514 161.262 37.6153 160.984 37.818C160.705 38.0207 160.477 38.331 160.3 38.749C160.135 39.1543 160.053 39.661 160.053 40.269C160.053 41.219 160.211 41.9283 160.528 42.397C160.857 42.8657 161.313 43.1 161.896 43.1ZM172.883 45.228C171.997 45.228 171.192 45.0317 170.47 44.639C169.761 44.2463 169.197 43.689 168.779 42.967C168.361 42.2323 168.152 41.3457 168.152 40.307C168.152 39.2937 168.361 38.4197 168.779 37.685C169.21 36.9503 169.761 36.3803 170.432 35.975C171.104 35.5697 171.813 35.367 172.56 35.367C173.434 35.367 174.163 35.5633 174.745 35.956C175.341 36.3487 175.784 36.887 176.075 37.571C176.379 38.2423 176.531 39.0087 176.531 39.87C176.531 40.098 176.519 40.326 176.493 40.554C176.468 40.7693 176.443 40.934 176.417 41.048H170.204L170.185 39.319H174.289C174.289 38.7363 174.156 38.2677 173.89 37.913C173.624 37.5457 173.2 37.362 172.617 37.362C172.275 37.362 171.946 37.457 171.629 37.647C171.313 37.837 171.053 38.1537 170.85 38.597C170.648 39.0277 170.546 39.5977 170.546 40.307C170.546 41.029 170.673 41.6053 170.926 42.036C171.192 42.454 171.528 42.758 171.933 42.948C172.339 43.138 172.769 43.233 173.225 43.233C173.605 43.233 173.96 43.1823 174.289 43.081C174.631 42.967 174.973 42.8087 175.315 42.606L176.17 44.183C175.702 44.4997 175.176 44.753 174.593 44.943C174.023 45.133 173.453 45.228 172.883 45.228ZM178.482 45V35.595H180.61L180.8 36.83H180.876C181.256 36.4373 181.674 36.0953 182.13 35.804C182.586 35.5127 183.118 35.367 183.726 35.367C184.398 35.367 184.942 35.5127 185.36 35.804C185.778 36.0827 186.101 36.4753 186.329 36.982C186.747 36.5387 187.191 36.1587 187.659 35.842C188.141 35.5253 188.685 35.367 189.293 35.367C190.307 35.367 191.048 35.7027 191.516 36.374C191.985 37.0453 192.219 37.97 192.219 39.148V45H189.616V39.49C189.616 38.7807 189.515 38.2867 189.312 38.008C189.122 37.7293 188.812 37.59 188.381 37.59C188.115 37.59 187.843 37.6723 187.564 37.837C187.286 38.0017 186.982 38.255 186.652 38.597V45H184.049V39.49C184.049 38.7807 183.948 38.2867 183.745 38.008C183.555 37.7293 183.245 37.59 182.814 37.59C182.295 37.59 181.719 37.9257 181.085 38.597V45H178.482ZM198.67 45.228C197.872 45.228 197.125 45.038 196.428 44.658C195.744 44.2653 195.187 43.7017 194.756 42.967C194.326 42.2323 194.11 41.3457 194.11 40.307C194.11 39.2683 194.326 38.3817 194.756 37.647C195.187 36.9123 195.744 36.3487 196.428 35.956C197.125 35.5633 197.872 35.367 198.67 35.367C199.456 35.367 200.19 35.5633 200.874 35.956C201.571 36.3487 202.135 36.9123 202.565 37.647C202.996 38.3817 203.211 39.2683 203.211 40.307C203.211 41.3457 202.996 42.2323 202.565 42.967C202.135 43.7017 201.571 44.2653 200.874 44.658C200.19 45.038 199.456 45.228 198.67 45.228ZM198.67 43.119C199.076 43.119 199.418 43.005 199.696 42.777C199.975 42.549 200.184 42.226 200.323 41.808C200.463 41.3773 200.532 40.877 200.532 40.307C200.532 39.737 200.463 39.243 200.323 38.825C200.184 38.3943 199.975 38.065 199.696 37.837C199.418 37.5963 199.076 37.476 198.67 37.476C198.252 37.476 197.904 37.5963 197.625 37.837C197.347 38.065 197.138 38.3943 196.998 38.825C196.859 39.243 196.789 39.737 196.789 40.307C196.789 40.877 196.859 41.3773 196.998 41.808C197.138 42.226 197.347 42.549 197.625 42.777C197.904 43.005 198.252 43.119 198.67 43.119Z" fill="white"/>
</svg>
