<svg width="41" height="41" viewBox="0 0 41 41" fill="none" xmlns="http://www.w3.org/2000/svg">
<path d="M40.6016 37.6723C37.627 32.5297 33.043 28.8422 27.6934 27.0942C30.3396 25.5189 32.3955 23.1186 33.5454 20.2617C34.6953 17.4049 34.8757 14.2497 34.0588 11.2804C33.2419 8.3112 31.4729 5.69221 29.0235 3.82567C26.574 1.95913 23.5796 0.948242 20.5001 0.948242C17.4205 0.948242 14.4261 1.95913 11.9767 3.82567C9.52726 5.69221 7.75827 8.3112 6.94136 11.2804C6.12446 14.2497 6.30481 17.4049 7.45473 20.2617C8.60465 23.1186 10.6606 25.5189 13.3067 27.0942C7.9571 28.8403 3.37312 32.5278 0.398509 37.6723C0.289424 37.8502 0.21707 38.0481 0.185713 38.2544C0.154357 38.4607 0.164634 38.6711 0.215939 38.8734C0.267243 39.0756 0.358536 39.2655 0.48443 39.4319C0.610324 39.5983 0.76827 39.7378 0.948948 39.8422C1.12963 39.9466 1.32938 40.0137 1.53641 40.0396C1.74345 40.0655 1.95358 40.0497 2.15441 39.9931C2.35524 39.9365 2.54269 39.8402 2.70571 39.71C2.86873 39.5797 3.00402 39.4182 3.10359 39.2348C6.78327 32.8754 13.2872 29.0786 20.5001 29.0786C27.713 29.0786 34.2169 32.8754 37.8966 39.2348C37.9961 39.4182 38.1314 39.5797 38.2944 39.71C38.4575 39.8402 38.6449 39.9365 38.8457 39.9931C39.0466 40.0497 39.2567 40.0655 39.4637 40.0396C39.6708 40.0137 39.8705 39.9466 40.0512 39.8422C40.2319 39.7378 40.3898 39.5983 40.5157 39.4319C40.6416 39.2655 40.7329 39.0756 40.7842 38.8734C40.8355 38.6711 40.8458 38.4607 40.8144 38.2544C40.7831 38.0481 40.7107 37.8502 40.6016 37.6723ZM9.56257 15.0161C9.56257 12.8528 10.204 10.7382 11.4059 8.93951C12.6077 7.14084 14.3159 5.73896 16.3145 4.91112C18.313 4.08329 20.5122 3.86669 22.6339 4.28872C24.7555 4.71074 26.7044 5.75244 28.234 7.28207C29.7637 8.81171 30.8054 10.7606 31.2274 12.8823C31.6494 15.0039 31.4328 17.2031 30.605 19.2017C29.7772 21.2002 28.3753 22.9084 26.5766 24.1103C24.778 25.3121 22.6633 25.9536 20.5001 25.9536C17.6002 25.9505 14.82 24.7971 12.7695 22.7466C10.719 20.6961 9.56567 17.9159 9.56257 15.0161Z" fill="black"/>
</svg>
